<?xml version="1.0" standalone="no"?>
<!DOCTYPE svg PUBLIC "-//W3C//DTD SVG 20010904//EN"
 "http://www.w3.org/TR/2001/REC-SVG-20010904/DTD/svg10.dtd">
<svg version="1.0" xmlns="http://www.w3.org/2000/svg"
 width="2500.000000pt" height="2500.000000pt" viewBox="0 0 2500.000000 2500.000000"
 preserveAspectRatio="xMidYMid meet">

<g transform="translate(0.000000,2500.000000) scale(0.100000,-0.100000)"
fill="#000000" stroke="none">
<path d="M14198 22650 c-925 -52 -1774 -329 -2532 -827 -291 -191 -509 -367
-765 -618 -403 -395 -728 -836 -969 -1312 -37 -73 -70 -133 -74 -133 -5 0 -36
20 -70 45 -325 240 -764 416 -1203 481 -140 21 -483 29 -627 15 -552 -54
-1048 -255 -1475 -600 -118 -95 -343 -324 -434 -441 -295 -380 -479 -813 -556
-1310 -27 -178 -25 -586 5 -779 13 -79 24 -148 25 -153 1 -5 -56 -31 -128 -59
-370 -141 -713 -344 -1020 -602 -113 -95 -319 -303 -424 -427 -396 -470 -660
-1034 -771 -1646 -66 -362 -68 -839 -4 -1209 160 -936 706 -1777 1500 -2315
458 -311 942 -494 1525 -577 118 -17 425 -18 6104 -18 4831 0 6000 2 6085 13
293 36 555 94 807 178 1161 385 2087 1307 2474 2464 83 248 134 472 175 760
25 179 30 664 10 860 -89 846 -418 1594 -978 2227 -336 379 -803 727 -1252
933 l-92 43 -12 206 c-66 1161 -500 2219 -1267 3090 -127 144 -397 409 -530
520 -748 623 -1613 1011 -2555 1145 -309 44 -687 62 -972 46z"/>
<path d="M9125 9178 c-163 -21 -301 -160 -323 -323 -20 -155 19 -249 162 -389
464 -453 1046 -831 1651 -1071 1338 -531 2837 -473 4130 160 467 229 935 560
1301 921 102 100 140 165 152 259 16 129 -22 248 -108 334 -88 88 -205 126
-335 109 -94 -12 -156 -49 -280 -168 -758 -726 -1741 -1145 -2787 -1189 -1191
-50 -2308 372 -3174 1200 -61 58 -121 106 -155 122 -65 32 -153 45 -234 35z"/>
<path d="M17395 7546 c-75 -24 -106 -47 -298 -227 -225 -212 -416 -374 -617
-525 -998 -749 -2130 -1182 -3400 -1301 -264 -24 -891 -24 -1155 0 -1040 97
-1974 400 -2840 920 -426 256 -794 539 -1212 932 -72 68 -149 131 -175 143
-195 95 -428 10 -522 -188 -28 -59 -31 -74 -31 -165 0 -90 3 -106 29 -159 34
-69 117 -160 311 -336 552 -503 1100 -878 1760 -1201 824 -404 1660 -636 2615
-724 373 -35 993 -30 1395 11 1669 169 3209 887 4409 2054 172 168 208 221
228 337 10 60 9 80 -5 139 -46 185 -196 305 -379 303 -40 0 -91 -6 -113 -13z"/>
<path d="M6077 5750 c-116 -20 -227 -107 -281 -220 -28 -59 -31 -74 -31 -165
0 -93 2 -105 32 -166 28 -56 61 -93 201 -230 788 -769 1762 -1417 2792 -1859
1982 -850 4220 -992 6297 -400 985 281 1956 743 2778 1321 443 311 881 676
1192 991 158 160 178 199 178 343 0 91 -3 106 -31 165 -75 158 -248 251 -411
220 -101 -18 -159 -53 -272 -163 -847 -823 -1778 -1429 -2845 -1852 -829 -328
-1649 -513 -2596 -587 -216 -16 -932 -17 -1155 0 -874 66 -1653 233 -2430 522
-1122 418 -2102 1038 -2995 1897 -136 130 -190 165 -285 182 -65 12 -69 12
-138 1z"/>
</g>
</svg>
